<svg xmlns="http://www.w3.org/2000/svg" xmlns:xlink="http://www.w3.org/1999/xlink" width="24" height="24" preserveAspectRatio="xMidYMid meet" viewBox="0 0 24 24" style="-ms-transform: rotate(360deg); -webkit-transform: rotate(360deg); transform: rotate(360deg);"><path d="M12.071 7.328l-4.95 4.95a1 1 0 0 1-1.414-1.414l5.657-5.657a1 1 0 0 1 1.414 0l5.657 5.657a1 1 0 0 1-1.414 1.414l-4.95-4.95zm0 6l-4.95 4.95a1 1 0 1 1-1.414-1.414l5.657-5.657a1 1 0 0 1 1.414 0l5.657 5.657a1 1 0 0 1-1.414 1.414l-4.95-4.95z" fill="#2D378A"/><rect x="0" y="0" width="24" height="24" fill="rgba(0, 0, 0, 0)" /></svg>